<svg xmlns="http://www.w3.org/2000/svg" width="56.17" height="56.29" viewBox="920.083 -2.109 56.167 56.286"><path fill="#979797" d="M974.93 43.53c-.84-2.52-1.68-3.84-3.48-4.56-1.8-.72-10.32-3.72-11.64-4.44-.46-.72-1.42-.36-1.54-.96-.12-.6-1.08-1.92-1.56-2.52-.42-.52-.93-.77-2-.9-.25-.34-.36-.95-.2-1.62 1.48-.7 1.48-2.26 2.38-5.16 1.34.52 2-2.35 2.48-3.3.48-.95.6-2.5.48-3.95-.1-1.16-.12-1.38-1-1.05.06-.47.1-.95.14-1.43.24-.4.4-.37.5-1.93.23-2.9 1.02-3.06.3-4.92-.72-1.86-1.15-3.72-2.22-4.94-1.07-1.22-1.5-1.22-3-1.5-1.5-.3-1-1.37-2.37-1.87s-2.3-.57-3.68-.57c-1.36 0-2.72 0-3.3.56-.56.58-1.35.36-2.57.65-1.22.3-1.72 1.3-1.72 1.8s-.8.15-2 .7c-1.22.6-2 3.25-2.3 4.25-.28 1 .08 3.37.15 4.37.06.97.06 2.1.57 3.63l.13 1.3c-1.02-.4-1.04-.23-1.14 1-.12 1.43 0 3 .48 3.95.48.96 1.15 3.96 2.6 3.24.9 2.93.86 4.5 2.4 5.2.17.6.08 1.03-.22 1.62-1.06.14-1.56.4-1.97.9-.5.6-1.44 1.93-1.56 2.53-.13.6-1.1.23-1.57.95-1.32.72-9.85 3.72-11.65 4.44-1.8.7-2.64 2.03-3.48 4.55-.84 2.52-1.32 10.65-1.32 10.65h56.17s-.48-8.13-1.32-10.65z"/></svg>