<svg xmlns="http://www.w3.org/2000/svg" viewBox="0 0 18 12"><path fill="none" stroke="#A5A5A5" stroke-linecap="round" stroke-miterlimit="10" d="M-57-63.5h2M-57.5-64v-3"/><path d="M-57.4-68.8c2.9 0 5.3 2.4 5.3 5.3s-2.4 5.3-5.3 5.3-5.3-2.4-5.3-5.3 2.4-5.3 5.3-5.3m0-1.2c-3.6 0-6.5 2.9-6.5 6.5S-61-57-57.4-57s6.5-2.9 6.5-6.5-2.9-6.5-6.5-6.5z" fill="#A5A5A5"/><g fill="gray"><path d="M9 0C3 0 .6 6 .6 6S3 12 9 12s8.4-6 8.4-6S15 0 9 0zm0 9.6C7 9.6 5.4 8 5.4 6S7 2.4 9 2.4 12.6 4 12.6 6 11 9.6 9 9.6z"/><circle cx="9" cy="6" r="1.8"/></g></svg>