<svg id="Слой_1" xmlns="http://www.w3.org/2000/svg" viewBox="-653 154.7 192.2 192.3"><style>.st0{fill:#00aeef}.st1{fill:#fff}</style><g id="Icons_1_"><path class="st0" d="M-556.9 154.7c-53.1 0-96.2 43.1-96.2 96.2s43.1 96.2 96.2 96.2 96.2-43.1 96.2-96.2c0-53.2-43.1-96.2-96.2-96.2z"/><circle class="st1" cx="-556.9" cy="219.4" r="25.7"/><path class="st1" d="M-531.6 247.8h-8c-4.6 4.1-10.6 6.7-17.2 6.7s-12.7-2.5-17.2-6.7h-8c-10.9 0-32.8 14.2-32.8 24.2v3.8c0 10 8.8 18.2 19.7 18.2h76.7c10.9 0 19.7-8.1 19.7-18.2V272c-.1-10-22.1-24.2-32.9-24.2z"/></g></svg>