<svg id="Слой_1" xmlns="http://www.w3.org/2000/svg" viewBox="-653 154.7 192.2 192.3"><style>.st0{fill:#fff}.st1{fill:#00aeef}</style><ellipse class="st0" cx="-553.3" cy="252.7" rx="67.2" ry="73.1"/><path class="st1" d="M-556.9 154.7c-53.1 0-96.2 43.1-96.2 96.2s43.1 96.2 96.2 96.2 96.2-43 96.2-96.2-43.1-96.2-96.2-96.2zm25.9 152.2c-4 0-25.9-.5-31.5-.5s-34.8-9.1-34.8-41.2V248c0-5.3-.1-10.7-.2-16v-4.6c0-8.1-.7-17.2 1.9-25 2-5.9 6.7-8.3 12.5-8.3 14 0 15 14.3 15 28.7h40.6c6.4 0 11.2 6.5 11.2 16.5s-10.4 12.2-15.8 12.2h-36.4c-.2 6.1-.4 11.1-.4 14.1 0 6.4 2.5 13.2 18 13.2h21.8c5.4 0 13.5 4.1 13.5 15.6-.1 11.4-11.4 12.5-15.4 12.5z"/></svg>