<svg id="Слой_1" xmlns="http://www.w3.org/2000/svg" viewBox="-653 154.7 192.2 192.3"><style>.st0{fill:#00aeef}.st1{fill:#fff}</style><g id="Icons_1_"><path class="st0" d="M-556.9 154.7c-53.1 0-96.2 43.1-96.2 96.2s43.1 96.2 96.2 96.2 96.2-43.1 96.2-96.2c0-53.2-43.1-96.2-96.2-96.2z"/><path class="st0" d="M-556.9 154.7c-53.1 0-96.2 43.1-96.2 96.2s43.1 96.2 96.2 96.2 96.2-43.1 96.2-96.2c0-53.2-43.1-96.2-96.2-96.2z"/><path class="st1" d="M-612.4 228.8l4.5 5.9s9.3-7.3 12.4-3.7c3.1 3.7 14.9 47.9 18.9 56.1 3.4 7.2 13 16.6 23.4 9.9 10.4-6.8 45.1-36.4 51.3-71.3 6.2-34.9-41.7-27.6-46.8 2.8 12.7-7.6 19.4 3.1 13 15.2-6.5 12.1-12.4 20-15.5 20-3.1 0-5.5-8.1-9-22.3-3.7-14.6-3.6-41-18.9-38-14.4 2.8-33.3 25.4-33.3 25.4z"/></g></svg>