<svg id="Слой_1" xmlns="http://www.w3.org/2000/svg" viewBox="-653 154.7 192.2 192.3"><style>.st0{fill:#fff}.st1{fill:#00aeef}</style><circle class="st0" cx="-553.2" cy="249.7" r="78.5"/><path class="st1" d="M-598 258.9h7v34.6h6.7v-34.6h7V253H-598m41.3-22.8c.9 0 1.6-.2 2.2-.7.6-.5.8-1.2.8-2.1v-17.9c0-.7-.3-1.3-.8-1.7-.5-.4-1.3-.7-2.2-.7-.8 0-1.5.2-2 .7-.5.4-.8 1-.8 1.7v17.9c0 .9.2 1.6.7 2.1.6.4 1.3.7 2.1.7zm14.9 33.1c-.9 0-1.8.2-2.7.7-.9.5-1.8 1.2-2.6 2.1v-13h-6v40.5h6v-2.3c.8.9 1.6 1.6 2.5 2 .9.4 2 .6 3.2.6 1.8 0 3.1-.6 4-1.7.9-1.1 1.4-2.7 1.4-4.9v-16.6c0-2.4-.5-4.3-1.5-5.6-1-1.2-2.4-1.8-4.3-1.8zm-.4 23.2c0 1-.2 1.6-.5 2.1-.4.4-.9.6-1.6.6-.5 0-.9-.1-1.4-.3-.5-.2-.9-.6-1.4-1.1v-18.6c.4-.4.8-.8 1.2-.9.4-.2.8-.3 1.3-.3.8 0 1.4.3 1.9.8.4.5.6 1.3.6 2.3l-.1 15.4zm-21.4-.1c-.6.6-1.2 1.2-1.8 1.6-.6.4-1.2.6-1.6.6-.6 0-1-.1-1.2-.4-.2-.3-.4-.8-.4-1.5v-22.9h-6v25c0 1.8.3 3.1 1 4 .7.9 1.7 1.3 3.1 1.3 1.1 0 2.3-.3 3.5-.9 1.2-.6 2.3-1.6 3.4-2.8v3.2h6v-29.8h-6v22.6z"/><path class="st1" d="M-556.9 154.7c-53.1 0-96.2 43.1-96.2 96.2s43.1 96.2 96.2 96.2 96.2-43.1 96.2-96.2c-.1-53.2-43.1-96.2-96.2-96.2zm15.5 47.5h6.7v25.2c0 .8.2 1.3.4 1.7.3.4.7.6 1.4.6.5 0 1.1-.2 1.9-.7.8-.5 1.5-1.1 2.1-1.8v-25h6.7v32.9h-6.7v-3.6c-1.2 1.3-2.5 2.4-3.9 3.1-1.3.7-2.6 1-3.9 1-1.5 0-2.7-.5-3.5-1.5-.8-1-1.2-2.4-1.2-4.4v-27.5zm-24.9 7.5c0-2.5.9-4.6 2.7-6.1 1.8-1.5 4.3-2.2 7.3-2.2 2.8 0 5.1.8 6.9 2.4 1.8 1.6 2.7 3.6 2.7 6.2v17c0 2.8-.9 5-2.6 6.6-1.8 1.6-4.1 2.4-7.2 2.4-2.9 0-5.3-.8-7.1-2.5-1.7-1.7-2.6-3.9-2.6-6.7l-.1-17.1zm-18.3-19.2l4.9 17.8h.5l4.7-17.8h7.7l-8.8 26.1v18.5h-7.6v-17.7l-9-26.9h7.6zm88 93.8c0 11.9-9.6 21.5-21.6 21.5h-74.9c-11.9 0-21.5-9.6-21.5-21.5V267c0-11.9 9.6-21.6 21.5-21.6h74.9c11.9 0 21.5 9.6 21.5 21.6v17.3z"/><path class="st1" d="M-523.8 262.9c-2.7 0-4.8.8-6.5 2.4-1.7 1.6-2.5 3.7-2.5 6.3V285c0 2.9.8 5.1 2.3 6.8 1.5 1.6 3.6 2.5 6.3 2.5 3 0 5.2-.8 6.7-2.3 1.5-1.6 2.2-3.9 2.2-6.9v-1.5h-6.2v1.4c0 1.7-.2 2.9-.6 3.4-.4.5-1.1.8-2.1.8s-1.6-.3-2-.9c-.4-.6-.6-1.7-.6-3.3v-5.6h11.4v-7.6c0-2.8-.7-5-2.2-6.5-1.4-1.6-3.5-2.4-6.2-2.4zm2.4 11.8h-5.3v-3c0-1.2.2-2.2.6-2.7.4-.5 1.1-.8 2-.8.9 0 1.6.3 2 .8.4.5.6 1.4.6 2.7l.1 3z"/></svg>