<svg id="Layer_1" xmlns="http://www.w3.org/2000/svg" viewBox="-653 154.7 192.2 192.3"><style>.st0{display:none}.st1{fill:#00aeef}.st2{fill:#fff}.st3{display:none;fill:none}</style><path class="st1" d="M-556.9 154.7c-53.1 0-96.1 43-96.1 96.1s43.1 96.2 96.2 96.2 96.2-43.1 96.2-96.2c-.1-53.1-43.2-96.1-96.3-96.1z"/><path id="SVGID_1_" class="st2" d="M-482.9 215.6h-22.2v-22.2h-6v22.2h-22.3v6.1h22.3v22.2h6v-22.2h22.2z"/><path id="SVGID_5_" class="st2" d="M-554.9 261c-3.4-2.4-9.8-8.2-9.8-11.6 0-4 1.1-6 7.2-10.7 6.2-4.8 10.6-11.6 10.6-19.5 0-9.4-4.2-18.6-12.1-21.6h11.9l8.4-6.1h-37.4c-16.8 0-32.6 12.7-32.6 27.4 0 15 11.4 27.2 28.5 27.2 1.2 0 2.3 0 3.5-.1-1.1 2.1-1.9 4.5-1.9 7 0 4.2 2.2 7.6 5.1 10.3-2.1 0-4.2.1-6.5.1-20.8 0-36.8 13.2-36.8 27 0 13.5 17.5 22 38.3 22 23.7 0 36.8-13.4 36.8-27-.1-11-3.3-17.4-13.2-24.4zm-20-18.8c-9.6-.3-18.8-10.8-20.5-23.4-1.6-12.7 4.9-22.4 14.5-22.1 9.6.3 18.8 10.4 20.5 23.1 1.6 12.7-4.8 22.7-14.5 22.4zm-3.7 64.1c-14.4 0-24.7-9.1-24.7-20 0-10.7 12.9-19.6 27.2-19.5 3.4 0 6.5.6 9.3 1.5 7.8 5.4 13.4 8.5 15 14.7.3 1.3.5 2.5.5 3.9-.1 10.8-7.2 19.4-27.3 19.4z"/><path class="st3" d="M-482.9 215.6h-22.2v-22.2h-6v22.2h-22.3v6.1h22.3v22.2h6v-22.2h22.2zm-72 45.4c-3.4-2.4-9.8-8.2-9.8-11.6 0-4 1.1-6 7.2-10.7 6.2-4.8 10.6-11.6 10.6-19.5 0-9.4-4.2-18.6-12.1-21.6h11.9l8.4-6.1h-37.4c-16.8 0-32.6 12.7-32.6 27.4 0 15 11.4 27.2 28.5 27.2 1.2 0 2.3 0 3.5-.1-1.1 2.1-1.9 4.5-1.9 7 0 4.2 2.2 7.6 5.1 10.3-2.1 0-4.2.1-6.5.1-20.8 0-36.8 13.2-36.8 27 0 13.5 17.5 22 38.3 22 23.7 0 36.8-13.4 36.8-27-.1-11-3.3-17.4-13.2-24.4zm-20-18.8c-9.6-.3-18.8-10.8-20.5-23.4-1.6-12.7 4.9-22.4 14.5-22.1 9.6.3 18.8 10.4 20.5 23.1 1.6 12.7-4.8 22.7-14.5 22.4zm-3.7 64.1c-14.4 0-24.7-9.1-24.7-20 0-10.7 12.9-19.6 27.2-19.5 3.4 0 6.5.6 9.3 1.5 7.8 5.4 13.4 8.5 15 14.7.3 1.3.5 2.5.5 3.9-.1 10.8-7.2 19.4-27.3 19.4z"/></svg>