<svg id="Слой_1" xmlns="http://www.w3.org/2000/svg" viewBox="-653 154.7 192.2 192.3"><style>.st0{fill:#00aeef}.st1{fill:#fff}</style><g id="Icons_1_"><path class="st0" d="M-556.9 154.7c-53.1 0-96.2 43.1-96.2 96.2s43.1 96.2 96.2 96.2 96.2-43.1 96.2-96.2c0-53.2-43.1-96.2-96.2-96.2z"/><path class="st1" d="M-558.1 291.6c-.2-.1-.3-.2-.5-.2-1.3-.4-2.6-.9-4-1.4-3.1-1.1-6-2.4-9-3.9-2.7-1.4-5.4-2.8-8-4.5-2.5-1.5-4.8-3.1-7.2-4.8-2.1-1.5-4.1-3.1-6.2-4.7-1.7-1.4-3.4-3-5.1-4.6-8.6-7.9-12-18.7-9.5-30.3 2.4-11.8 10.8-22.2 20.7-25.8 2.9-1.1 5.9-1.6 8.8-1.4 10.8.2 16.8 8 19.8 11.7 3.1-3.5 12.9-11 23.7-10.8 3 0 5.8.6 8.7 1.8 9.8 4 17.8 14.8 19.7 26.7 1.9 11.7-2 22.3-10.8 30-1.7 1.5-3.5 2.9-5.2 4.3-2.1 1.6-4.2 3.1-6.4 4.5-2.4 1.6-4.8 3.1-7.3 4.5-2.7 1.5-5.5 2.9-8.2 4.2-3 1.3-6 2.4-9.1 3.4-1 .4-2 .6-3.1.9-.5.2-1 .3-1.5.5.1-.1-.1-.1-.3-.1z"/></g></svg>