<svg id="Слой_1" xmlns="http://www.w3.org/2000/svg" viewBox="-653 154.7 192.2 192.3"><style>.st0{fill:#00aeef}.st1{fill:#fff}</style><g id="Icons_1_"><path class="st0" d="M-556.9 154.7c-53.1 0-96.2 43.1-96.2 96.2s43.1 96.2 96.2 96.2 96.2-43.1 96.2-96.2c0-53.2-43.1-96.2-96.2-96.2z"/><path class="st1" d="M-577.8 224.9c11.1-.1 9.5 23.4 4.3 28.7-11.3-5.8-13.8-20.4-20.8-30.5-9.5-.8-16.4-1.2-23.8 1.2 12.7 27.9 26.8 70.8 70.8 63.5 1.4-6.8.4-14.4 6.1-14.7 6.3-.3 10.5 12.5 17.1 15.3 1.6.7 4 1.1 5.5 1.2 7.1.6 23 1.3 22.6-3.1.4-7.9-4.7-10.1-9.2-14.7-3.1-3.2-10.9-8.6-11-12.8-.1-4.9 7.6-11.9 11-16.5 4.3-5.8 11.4-16.6 9.2-18.3-2.7-3.5-25.6-2.1-27.5-1.2-6.5 10.6-9.4 24.8-20.8 30.5-5.3-6.1-.6-22.2-3.1-31.1-6.6-4.1-26.9-5.3-30.4 2.5z"/></g></svg>