<svg xmlns="http://www.w3.org/2000/svg" width="454" height="49" viewBox="0 0 454 49"><path fill="#414042" d="M31.4 22.48c1.85 1.74 3.14 3.45 3.9 5.12.76 1.68 1.13 3.6 1.13 5.82 0 4.03-1.53 7.45-4.6 10.24-.74.7-1.45 1.26-2.14 1.7-.7.43-1.5.77-2.3 1.02-.8.25-1.8.43-2.8.52-1.1.1-2.3.14-3.8.14h-12c-1.7 0-3-.15-3.9-.45-.9-.3-1.8-1-2.6-1.9-.46-.5-.85-1.08-1.17-1.7s-.54-1.2-.7-1.8c-.04-.3-.07-.68-.1-1.17-.03-.47-.05-1.44-.05-2.9V8.93c.02-2.3.8-4.18 2.22-5.6 1.5-1.46 3.32-2.2 5.6-2.2h6.46c1.24 0 2.28.03 3.13.05.8 0 1.5.04 2.2.1.6.04 1.1.1 1.6.16.5.07.9.15 1.4.24 3.13.78 5.7 2.42 7.7 4.92 1.9 2.5 2.9 5.44 2.9 8.83 0 1.33-.17 2.48-.47 3.44s-.88 2.16-1.7 3.58m-16-3.56h1.8c1.04 0 1.77-.15 2.2-.4.4-.26.6-.7.6-1.35s-.23-1.1-.68-1.38c-.46-.28-1.2-.4-2.27-.4h-1.6v3.5zm0 14h2.54c1.33 0 2.2-.12 2.65-.37s.64-.73.64-1.4c0-.7-.26-1.2-.8-1.5S19 29.2 17.8 29.2h-2.4v3.73zm151-28.06c.6-1.2 1.5-2.17 2.7-2.93 1.2-.73 2.5-1.13 3.94-1.13.9 0 1.86.2 2.83.55.97.37 1.77.87 2.4 1.5.66.66 1.15 1.34 1.5 2.08.36.74.64 1.73.87 2.97l5.2 29.56c.1.5.17.97.2 1.38s.1.8.1 1.2c0 1.06-.2 2.03-.6 2.92-.38.9-.9 1.68-1.57 2.3-.66.66-1.45 1.18-2.36 1.57s-1.88.56-2.9.56c-1.92 0-3.57-.53-4.95-1.58-1.4-1.06-2.2-2.46-2.56-4.2l-1.74-8.6-2.95 8.1c-1.5 4.18-4.1 6.27-7.76 6.27-1.9 0-3.45-.5-4.7-1.48-1.23-1-2.24-2.57-3.02-4.7l-3-8.2-1.24 7.3c-.37 2.2-1.23 3.92-2.58 5.2-1.4 1.24-3.08 1.87-5 1.87-2.3 0-4.1-.77-5.5-2.3-1.47-1.54-2.2-3.52-2.2-5.95 0-.34.03-.65.05-.94 0-.3.06-.6.1-.94l5.28-29.3c.37-2.2 1.2-3.95 2.5-5.2 1.32-1.27 2.96-1.9 4.93-1.9 1.6 0 3.1.46 4.5 1.37 1.4.9 2.43 2.15 3.08 3.7l6.8 15.2 7.64-16.3"/><path fill="#00AEEF" d="M205.07 48.2c-2.43 0-4.7-.3-6.8-.9-2.12-.58-3.96-1.4-5.52-2.46-1.56-1.06-2.77-2.3-3.64-3.7-.8-1.38-1.3-2.9-1.3-4.56 0-.96.2-1.86.6-2.68.34-.83.8-1.55 1.44-2.17.6-.62 1.35-1.1 2.2-1.48.85-.37 1.76-.55 2.7-.55.9 0 1.8.17 2.66.52.84.34 1.74.9 2.7 1.68l2 1.52c.5.36.92.65 1.24.86.3.2.6.33.8.37.24.05.5.07.77.07.6 0 1.1-.18 1.4-.55.37-.36.55-.85.55-1.44 0-.78-.4-1.42-1.2-1.93-.1-.04-.2-.1-.3-.17l-.5-.24-.8-.4-1.4-.6-1.9-.65c-.6-.2-1.2-.4-1.85-.65-6.66-2.34-10-6.7-10-13.07 0-2.26.4-4.3 1.24-6.13s1.98-3.4 3.45-4.74 3.22-2.37 5.3-3.1c2.1-.74 4.4-1.1 6.88-1.1 2.06 0 4 .26 5.77.8 1.8.5 3.35 1.22 4.68 2.12 1.34.9 2.38 1.94 3.14 3.15.75 1.2 1.12 2.53 1.12 3.95 0 1.83-.58 3.33-1.68 4.5s-2.52 1.76-4.26 1.76c-1.07 0-2.05-.2-2.97-.6-.9-.38-2-1.05-3.3-2-.77-.65-1.4-1.08-1.85-1.3-.47-.24-.9-.36-1.3-.36-.5 0-.94.16-1.3.5-.33.35-.5.78-.5 1.28 0 .7.3 1.24.9 1.65.64.4 1.85.9 3.64 1.5 1.97.6 3.83 1.3 5.57 2.2 1.74.84 3.14 1.72 4.2 2.64 1.42 1.2 2.54 2.73 3.37 4.63.8 1.9 1.22 3.96 1.22 6.16 0 2.06-.38 4.05-1.13 5.95-.77 1.9-1.83 3.57-3.2 5-1.57 1.56-3.4 2.7-5.48 3.47-2.1.77-4.55 1.15-7.4 1.15m27.27-32.95c-1.34 0-2.45-.15-3.35-.5-.9-.3-1.67-.8-2.36-1.5-1.4-1.5-2.1-3.2-2.1-5 0-1.34.38-2.6 1.13-3.8.77-1.2 1.7-2.03 2.8-2.54.4-.16.78-.3 1.1-.4.3-.1.76-.15 1.3-.2.56-.04 1.28-.1 2.17-.1.9-.02 2.1-.04 3.6-.04h19.1c.3 0 .55.03.7.05l.6.1c1.83.2 3.3.97 4.47 2.25s1.72 2.83 1.72 4.6c0 1.03-.24 2-.67 2.98-.45.96-1.06 1.8-1.84 2.47-1.2 1.1-3.15 1.63-5.85 1.63h-3.35v22.9c0 1.36-.1 2.5-.26 3.35s-.53 1.7-1.03 2.47c-.7 1.1-1.55 1.95-2.63 2.55-1.1.58-2.3.88-3.6.88-1.3 0-2.5-.27-3.57-.82-1.07-.54-2-1.32-2.7-2.33-.5-.78-.84-1.58-1-2.4-.2-.83-.3-2.03-.3-3.6v-22.9h-4.06M274.3 41c-1 2.26-2.08 3.88-3.3 4.86-1.2 1-2.74 1.48-4.57 1.48-1.07 0-2.05-.2-2.97-.58-.93-.4-1.7-.93-2.4-1.62-.65-.7-1.2-1.5-1.57-2.4-.4-.93-.58-1.9-.58-2.97 0-1.23.3-2.6.95-3.93l14.4-30.5c.62-1.4 1.56-2.52 2.8-3.33 1.24-.8 2.6-1.2 4.13-1.2 1.56 0 2.95.4 4.2 1.2 1.23.85 2.2 1.98 2.88 3.45L302.7 36.3c.6 1.12.9 2.34.9 3.62 0 1.06-.2 2.03-.64 2.93-.4.9-.95 1.7-1.64 2.38-.7.7-1.5 1.24-2.4 1.63s-1.9.58-2.97.58c-1.76 0-3.2-.46-4.38-1.4s-2.27-2.6-3.33-4.92h-14m65.73-6c.5.78.87 1.6 1.1 2.44.23.87.34 1.68.34 2.46 0 1.05-.2 2.03-.55 2.92-.4.9-1 1.68-1.68 2.34-.7.66-1.5 1.2-2.4 1.6-.93.4-1.9.56-2.97.56-2.77 0-4.85-1.17-6.28-3.5l-6.25-10.4v6.26c0 1.1-.2 2.1-.58 3.03-.4.9-.95 1.7-1.6 2.4-.68.7-1.46 1.23-2.35 1.6-.9.4-1.86.6-2.92.6-1.12 0-2.22-.24-3.3-.72-1.03-.5-1.9-1.13-2.6-2-1.2-1.5-1.8-3.66-1.8-6.46V9.9c0-1.66.2-3 .57-4.04.36-1.03 1-1.93 1.9-2.7.87-.8 1.77-1.32 2.7-1.6.95-.27 2.34-.4 4.18-.4h6.33c1.88 0 3.3.05 4.34.17 1 .1 2.02.28 3.02.5 1.77.52 3.4 1.27 4.87 2.28 1.5 1.1 2.75 2.3 3.8 3.7 1.06 1.4 1.88 2.95 2.48 4.65.6 1.7.9 3.46.9 5.3 0 2.2-.4 4.2-1.13 6-.77 1.8-2 3.7-3.76 5.7l3.6 5.7m12.1-19.9c-1.33 0-2.44-.15-3.34-.5-.9-.3-1.68-.8-2.37-1.5-1.5-1.5-2.2-3.2-2.2-5 0-1.34.35-2.6 1.1-3.8.76-1.2 1.7-2.03 2.8-2.54.4-.1.8-.3 1.1-.4.32-.1.75-.1 1.3-.2.56 0 1.3-.1 2.17-.1h22.8c.3 0 .54 0 .7.05l.6.1c1.82.25 3.3 1 4.46 2.3 1.13 1.3 1.7 2.8 1.7 4.6 0 1-.22 2-.66 2.96s-1.02 1.8-1.8 2.47c-1.2 1.1-3.13 1.67-5.84 1.67h-3.37v22.8c0 1.36-.1 2.5-.3 3.35-.2.87-.53 1.7-1.03 2.47-.7 1.1-1.6 1.95-2.67 2.55-1.07.6-2.27.9-3.6.9-1.3 0-2.47-.27-3.55-.82-1.06-.55-1.97-1.33-2.7-2.34-.5-.78-.85-1.58-1.04-2.4-.2-.83-.28-2.03-.28-3.6v-23h-4m54.85 17.6c1.65 0 2.92.13 3.8.38.9.26 1.75.7 2.53 1.34 1.6 1.43 2.4 3.22 2.4 5.37 0 1.06-.2 2.08-.65 3.06-.43 1-1.03 1.8-1.8 2.5-.4.3-.76.6-1.15.8-.4.2-.8.4-1.27.5-.46.1-1 .2-1.62.25-.6.04-1.35.07-2.22.07h-11.8c-1.74 0-2.98-.05-3.7-.14-.74-.1-1.43-.24-2.07-.47-2.46-1-3.9-2.85-4.36-5.5l-.14-.66-.1-.8-.03-1.18V11.48c0-.96 0-1.74.03-2.34l.1-1.48c.07-.4.14-.72.23-1l.32-.96c.34-.9.83-1.64 1.5-2.3s1.4-1.13 2.17-1.5c.42-.2.8-.32 1.1-.4.33-.1.7-.17 1.15-.2s1-.1 1.64-.1c.65-.04 1.53-.06 2.63-.06h11.7c.63 0 1.13.03 1.5.07l.9.2.75.16c1.6.4 2.9 1.2 3.83 2.4s1.4 2.6 1.4 4.2c0 1.1-.2 2.15-.63 3.13s-1.07 1.8-1.85 2.43c-.68.6-1.46 1-2.33 1.28-.9.26-2.04.38-3.46.38h-7.6v3.2h6c1.9 0 3.38.5 4.48 1.5 1.1 1 1.65 2.3 1.65 3.9 0 1.8-.66 3.25-2 4.35-.6.43-1.2.75-1.9.9-.64.16-1.57.24-2.77.24h-5.43v3.45h6.96m44.9 2.2c.5.8.87 1.6 1.1 2.47.23.86.35 1.67.35 2.45 0 1.06-.2 2.04-.6 2.93-.38.9-.9 1.68-1.6 2.34-.7.7-1.5 1.2-2.4 1.6-.93.4-1.9.6-2.97.6-2.76 0-4.85-1.2-6.27-3.5l-6.26-10.4v6.24c0 1.1-.2 2.1-.6 3.04-.38.9-.9 1.7-1.58 2.4s-1.47 1.2-2.37 1.6c-.9.4-1.87.6-2.92.6-1.14 0-2.24-.26-3.3-.74-1.05-.5-1.92-1.16-2.6-2.03-1.2-1.5-1.8-3.66-1.8-6.46V9.9c0-1.66.2-3 .56-4.04.38-1.03 1-1.93 1.94-2.7.9-.8 1.8-1.32 2.73-1.6.95-.27 2.34-.4 4.17-.4h6.3c1.9 0 3.34.05 4.35.17 1 .1 2.03.28 3.04.5 1.8.52 3.4 1.27 4.85 2.28 1.47 1.1 2.73 2.3 3.8 3.7 1.04 1.4 1.87 2.95 2.46 4.65.6 1.7.9 3.46.9 5.3 0 2.2-.36 4.2-1.12 6-.76 1.8-2 3.7-3.76 5.7l3.57 5.7"/><path fill-rule="evenodd" clip-rule="evenodd" fill="#414042" d="M83.4 21.12h-1.93c-.24-1.68-.7-3.3-1.3-4.83l1.68-1c.38-.2.53-.7.33-1l-2.28-4c-.13-.35-.6-.45-1-.2l-1.7.95C76.2 9.8 75 8.6 73.7 7.6l.98-1.7c.2-.4.12-.85-.22-1.05L70.5 2.6c-.34-.2-.8-.04-1 .33l-1 1.7c-1.52-.6-3.13-1.05-4.8-1.3V1.4c0-.44-.33-.8-.72-.8h-4.54c-.4 0-.7.36-.7.8v1.96c-1.7.24-3.3.68-4.83 1.3l-1-1.7c-.2-.38-.6-.53-1-.34L47 4.9c-.34.2-.43.65-.22 1.03l.98 1.7c-1.3 1.04-2.5 2.22-3.53 3.54l-1.7-.98c-.36-.3-.83-.2-1.02.2l-2.2 3.9c-.2.3-.04.8.34 1l1.68 1c-.6 1.5-1.04 3.1-1.3 4.8h-2c-.43 0-.8.3-.8.7v4.54c0 .4.37.7.8.7h1.94c.24 1.7.68 3.3 1.3 4.84l-1.67 1c-.4.2-.54.64-.34 1l2.27 3.92c.2.33.67.43 1.04.2l1.67-.95c1.05 1.32 2.24 2.5 3.55 3.55l-.96 1.66c-.2.4-.18.83.2 1.03l3.9 2.27c.33.2.8.04 1-.33l.95-1.67c1.52.63 3.14 1.07 4.83 1.3v1.9c0 .46.32.8.7.8H63c.4 0 .7-.34.7-.8v-1.9c1.7-.22 3.33-.67 4.87-1.3l.95 1.67c.22.36.67.5 1 .32l3.94-2.3c.35-.2.44-.67.22-1.05l-.95-1.63c1.3-1.03 2.5-2.22 3.54-3.54l1.67.98c.38.23.85.13 1.04-.2l2.28-3.94c.2-.33.05-.8-.33-1l-1.67-.96c.62-1.5 1.06-3.13 1.3-4.82h1.93c.4 0 .8-.3.8-.7v-4.5c0-.4-.4-.7-.8-.7zM71.14 27.5l-5.37.28 1.38 5.2-4.5-2.93-1.95 5.02-1.95-5.02-4.5 2.93 1.37-5.2-5.37-.3 4.17-3.4-4.17-3.38 5.37-.3-1.38-5.2 4.5 2.94 1.95-5.02 1.9 5.02 4.5-2.93-1.4 5.2 5.35.3-4.18 3.4 4.17 3.4z"/><path fill-rule="evenodd" clip-rule="evenodd" fill="#414042" d="M129.87 27.1l-1.86-.5c.2-1.64.2-3.32 0-5l1.9-.5c.4-.12.7-.52.6-.9l-1.2-4.38c-.1-.38-.5-.6-.9-.48l-1.9.5c-.65-1.56-1.5-3-2.5-4.33l1.38-1.3c.3-.3.34-.8.07-1.04l-3.2-3.2c-.28-.3-.76-.26-1.07.05l-1.36 1.38c-1.34-1-2.8-1.83-4.33-2.5L116 3c.12-.44-.1-.86-.46-.96L111.1.8c-.4-.1-.8.17-.9.6l-.5 1.9c-1.64-.2-3.3-.2-5 0l-.5-1.9c-.1-.43-.5-.7-.9-.6L98.9 2c-.38.1-.6.52-.48.94l.5 1.9c-1.55.66-3 1.5-4.32 2.5L93.2 5.9c-.3-.3-.8-.33-1.06-.05l-3.2 3.2c-.3.28-.26.76.05 1.07l1.3 1.38c-1 1.34-1.85 2.8-2.5 4.33l-1.9-.5c-.4-.12-.84.1-.94.46l-1.18 4.4c-.1.3.15.7.57.9l1.9.5c-.2 1.6-.2 3.3 0 5l-1.87.5c-.4.1-.67.5-.57.8l1.2 4.4c.1.38.53.6.95.48l1.87-.5c.67 1.57 1.5 3.02 2.5 4.34L89 38.04c-.32.3-.35.8-.07 1.06l3.2 3.23c.28.27.76.24 1.07-.07l1.36-1.36c1.34 1 2.8 1.85 4.34 2.52l-.5 1.85c-.1.42.1.84.48.94l4.4 1.2c.36.1.76-.1.87-.6l.5-1.8c1.64.2 3.32.2 5.02 0l.5 1.9c.1.42.5.7.87.6l4.4-1.2c.37-.1.58-.5.47-.94l-.4-1.84c1.57-.67 3-1.52 4.34-2.5l1.35 1.33c.3.3.8.34 1.06.07l3.2-3.24c.3-.26.27-.74-.04-1.05l-1.37-1.4c1-1.33 1.83-2.8 2.5-4.33l1.85.5c.42.1.84-.1.94-.48l1.14-4.4c.1-.4-.16-.8-.58-.9zM115.9 31l-5.12-1.65-.57 5.35-3.1-4.35-3.6 4v-5.4l-5.25 1.12 3.15-4.35-4.9-2.2 5.1-1.67-2.7-4.67 5.1 1.66.58-5.35 3.17 4.3 3.6-4 .03 5.4 5.26-1.1-3.15 4.3 4.9 2.2-5.13 1.67 2.7 4.66z"/></svg>