<?xml version="1.0" encoding="utf-8"?>
<!-- Generator: Adobe Illustrator 19.0.0, SVG Export Plug-In . SVG Version: 6.00 Build 0)  -->
<svg version="1.1" id="Слой_1" xmlns="http://www.w3.org/2000/svg" xmlns:xlink="http://www.w3.org/1999/xlink" x="0px" y="0px"
	 viewBox="0 0 12 12" style="enable-background:new 0 0 12 12;" xml:space="preserve">
<style type="text/css">
	.st0{fill:#808080;}
</style>
<g id="XMLID_54_">
	<g id="XMLID_55_">
		<g id="XMLID_56_">
			<path id="XMLID_57_" class="st0" d="M2.1,8.1c0.5,0,1-0.2,1.4-0.5l4.3,2.1c0,0,0,0.1,0,0.1c0,1.2,0.9,2.1,2.1,2.1
				c1.2,0,2.1-0.9,2.1-2.1s-0.9-2.1-2.1-2.1c-0.5,0-1,0.2-1.4,0.5L4.2,6.1c0,0,0-0.1,0-0.1c0,0,0-0.1,0-0.1l4.3-2.2
				C8.9,4,9.4,4.2,9.9,4.2c1.2,0,2.1-0.9,2.1-2.1C12,0.9,11.1,0,9.9,0C8.7,0,7.8,0.9,7.8,2.1c0,0,0,0.1,0,0.1L3.5,4.4
				C3.1,4.1,2.6,3.9,2.1,3.9C0.9,3.9,0,4.8,0,6C0,7.2,0.9,8.1,2.1,8.1z"/>
		</g>
	</g>
</g>
</svg>
