<?xml version="1.0" encoding="utf-8"?>
<!-- Generator: Adobe Illustrator 19.0.0, SVG Export Plug-In . SVG Version: 6.00 Build 0)  -->
<svg version="1.1" id="Слой_1" xmlns="http://www.w3.org/2000/svg" xmlns:xlink="http://www.w3.org/1999/xlink" x="0px" y="0px"
	 viewBox="0 0 512 241" style="enable-background:new 0 0 512 241;" xml:space="preserve">
<style type="text/css">
	.st0{fill:#374662;}
</style>
<g id="XMLID_54_">
	<path id="XMLID_55_" class="st0" d="M490.8,234.5c-7.6-9.1-15.9-17.6-24.4-25.9c-8.5-8.3-17.2-16.3-25.7-24.6
		c-7.7-7.5-11.7-13.4-12.3-19.6c-0.6-6.2,2.2-12.7,8.4-21.3c6.7-9.4,13.7-18.6,20.7-27.9s14-18.4,20.8-27.8
		c6.3-8.8,12.7-17.5,18.4-26.7c5.6-9.2,10.5-18.8,13.9-29.3c2.1-6.7,2.2-11.5,0.1-14.9c-2.1-3.4-6.5-5.5-13.3-6.7
		c-1.2-0.2-2.4-0.3-3.6-0.4s-2.4-0.1-3.6-0.1l-40.6,0l-40.6,0c-5-0.1-8.9,1-11.9,3.2c-3.1,2.2-5.3,5.5-7.1,9.9
		c-2.4,6-4.8,12-7.3,17.9s-5.2,11.8-8,17.6c-6.4,13.1-13.3,26-21,38.3c-7.7,12.3-16.4,24-26.5,34.7c-2.2,2.4-4.6,5-7.3,6.8
		c-2.7,1.8-5.8,2.7-9.5,1.4c-4.7-1.7-7.7-6.4-9.5-11.3c-1.8-4.9-2.5-10-2.4-12.6l0-46.8l0-46.8c-0.9-6.7-2.1-11.5-4.7-15
		c-2.6-3.5-6.7-5.6-13.3-6.9l-42.1,0l-42.1,0c-5.6,0-9.8,1.1-13.4,3.1c-3.6,2-6.5,4.8-9.5,8.3c-1.7,2-2.9,3.7-2.7,5
		c0.2,1.3,1.7,2.3,5.3,3c7,1.3,12.5,4.3,16.4,8.6c4,4.3,6.5,10.1,7.5,17.1c1.7,11.2,2.5,22.4,2.6,33.7s-0.4,22.5-1.4,33.7
		c-0.3,3.3-0.7,6.6-1.4,9.8c-0.7,3.2-1.6,6.4-2.9,9.5c-2,4.8-4.7,7.7-7.9,8.7c-3.2,1-7,0-11.4-3c-3.9-2.7-7.2-5.9-10.3-9.4
		c-3-3.5-5.7-7.3-8.4-11.1c-10.1-14.3-19.2-29.1-27.4-44.4S115.5,41.2,108.9,25c-1.9-4.7-4.5-8.4-7.8-11c-3.4-2.6-7.5-4.1-12.4-4.1
		C76.5,9.7,64.3,9.6,52.1,9.6C40,9.6,27.8,9.7,15.6,9.9c-7.3,0.1-12.1,2-14.3,5.5s-1.8,8.6,1.2,15.2C15.8,60,29.8,89.1,45.4,117.3
		s32.5,55.6,51.8,81.7c9.9,13.4,20.5,26,32.3,37.4c-1,6.2,38.5,4,38.5,4s35,0.2,53.3,0.2l70.9-0.2h6.8c0,0,1.4,0.1,3.6,0.2h0.5
		c-0.5,0,1.3-3.8,4.3-9.2c2.9-5.3,6.6-8.5,10.8-9.5c4.2-1,9,0.1,14,3.4c2.5,1.7,4.9,3.5,7.1,5.6s4.3,4.2,6.3,6.4
		c5.3,4.9,15.7,3.2,15.7,3.2s14.8,0,14.2,0.1h21.5c0,0,17.2,0.5,26.8-0.2l31.8,0.8l26.2-0.2l9.5-0.2l4.5-0.2l0,0
		C495.8,240.7,494.2,238.6,490.8,234.5z"/>
</g>
</svg>
