<?xml version="1.0" encoding="utf-8"?>
<!-- Generator: Adobe Illustrator 19.0.0, SVG Export Plug-In . SVG Version: 6.00 Build 0)  -->
<svg version="1.1" id="Слой_1" xmlns="http://www.w3.org/2000/svg" xmlns:xlink="http://www.w3.org/1999/xlink" x="0px" y="0px"
	 viewBox="0 0 104 104" enable-background="new 0 0 104 104" xml:space="preserve">
<rect id="XMLID_155_" x="0.1" y="0.1" fill="#2D4C69" width="41.2" height="11.4"/>
<rect id="XMLID_154_" x="92.5" y="62.7" fill="#2D4C69" width="11.4" height="41.2"/>
<polygon id="XMLID_151_" fill="#35A8DF" points="103.9,62.7 41.3,0.1 0.1,0.1 103.9,103.9 "/>
<g id="XMLID_132_">
	<path id="XMLID_149_" fill="#FFFFFF" d="M39.8,7.8l2.1,2.2l-3.8,3.8l4,4l3.8-3.8l2.1,2.2l-9.9,9.8L36,23.7l4.3-4.2l-4-4l-4.3,4.2
		l-2.1-2.2L39.8,7.8z"/>
	<path id="XMLID_146_" fill="#FFFFFF" d="M43.1,31.2c-0.6-0.6-1-1.2-1.2-1.8c-0.3-0.6-0.4-1.3-0.4-1.9c0-0.6,0.2-1.3,0.4-1.9
		c0.3-0.6,0.7-1.2,1.3-1.8c0.6-0.6,1.2-1,1.8-1.3c0.6-0.3,1.3-0.4,1.9-0.4c0.6,0,1.3,0.1,1.9,0.4c0.6,0.3,1.2,0.7,1.8,1.3
		c0.6,0.6,1,1.2,1.2,1.8c0.3,0.6,0.4,1.3,0.4,1.9c0,0.6-0.2,1.3-0.4,1.9c-0.3,0.6-0.7,1.2-1.3,1.8c-0.6,0.6-1.2,1-1.8,1.3
		c-0.6,0.3-1.3,0.4-1.9,0.4c-0.6,0-1.3-0.1-1.9-0.4C44.3,32.2,43.7,31.8,43.1,31.2z M44.6,29.7c0.3,0.3,0.7,0.5,1,0.6
		c0.4,0.1,0.7,0.1,1.1,0c0.3-0.1,0.7-0.2,1-0.4c0.3-0.2,0.6-0.5,0.9-0.7c0.3-0.3,0.5-0.6,0.8-0.9c0.2-0.3,0.4-0.7,0.5-1
		c0.1-0.3,0.1-0.7,0-1.1s-0.3-0.7-0.6-1c-0.3-0.3-0.7-0.5-1-0.6c-0.4-0.1-0.7-0.1-1,0c-0.3,0.1-0.7,0.2-1,0.4
		c-0.3,0.2-0.6,0.5-0.9,0.8c-0.3,0.3-0.5,0.6-0.8,0.9c-0.2,0.3-0.4,0.7-0.5,1c-0.1,0.3-0.1,0.7,0,1C44.1,29.1,44.3,29.4,44.6,29.7z"
		/>
	<path id="XMLID_142_" fill="#FFFFFF" d="M55.4,29l4.1,4.1c0.3,0.3,0.6,0.6,0.8,1c0.2,0.3,0.3,0.7,0.4,1c0.1,0.3,0,0.7-0.1,1
		c-0.1,0.3-0.3,0.7-0.6,1c-0.4,0.3-0.7,0.6-1.2,0.6c-0.4,0.1-0.9,0-1.3-0.1c0.3,0.5,0.4,1,0.3,1.5c0,0.5-0.3,1-0.8,1.5
		c-0.3,0.3-0.7,0.6-1.1,0.7c-0.4,0.1-0.8,0.2-1.2,0.1c-0.4,0-0.8-0.2-1.2-0.4c-0.4-0.2-0.7-0.5-1.1-0.8L48.3,36L55.4,29z M55.8,35
		c0.1,0.1,0.3,0.3,0.5,0.4c0.2,0.1,0.3,0.2,0.5,0.3c0.2,0.1,0.3,0.1,0.5,0c0.2,0,0.3-0.2,0.5-0.3c0.2-0.2,0.3-0.3,0.3-0.5
		c0-0.2,0-0.3,0-0.5c-0.1-0.2-0.1-0.3-0.3-0.5c-0.1-0.2-0.3-0.3-0.4-0.5l-1.3-1.3l-1.6,1.6L55.8,35z M52.9,38.2
		c0.2,0.2,0.3,0.3,0.5,0.4c0.2,0.1,0.4,0.2,0.5,0.3c0.2,0.1,0.4,0.1,0.6,0c0.2,0,0.4-0.2,0.6-0.4c0.2-0.2,0.3-0.4,0.4-0.6
		c0.1-0.2,0-0.4,0-0.6c-0.1-0.2-0.2-0.4-0.3-0.6c-0.1-0.2-0.3-0.4-0.5-0.5l-1.4-1.4l-1.9,1.9L52.9,38.2z"/>
	<path id="XMLID_140_" fill="#FFFFFF" d="M63.3,36.9l1.9,1.9l-4.8,4.8l7.5-2.1l2.2,2.2l-7.1,7.1l-1.9-1.9l4.8-4.8l-7.5,2.1L56.2,44
		L63.3,36.9z"/>
	<path id="XMLID_138_" fill="#FFFFFF" d="M71.6,45.2l1.9,2l-2.6,2.6l2.8,2.8l2.6-2.6l1.9,2L71.1,59l-1.9-2l3-3l-2.8-2.8l-3,3l-1.9-2
		L71.6,45.2z"/>
	<path id="XMLID_136_" fill="#FFFFFF" d="M79.7,53.4l1.9,2l-2.9,2.9l5.5-0.3l2.3,2.3l-6.1,0.1l-0.6,7.3l-2.4-2.4l0.5-5.5L77,60
		l-2.5,2.5l-1.9-2L79.7,53.4z"/>
	<path id="XMLID_133_" fill="#FFFFFF" d="M82.3,70.7c-0.3-0.3-0.6-0.7-0.8-1.1c-0.2-0.4-0.3-0.8-0.4-1.2c0-0.4,0-0.8,0.1-1.2
		s0.4-0.8,0.8-1.1c0.4-0.4,0.8-0.7,1.2-0.8c0.4-0.1,0.8-0.1,1.2-0.1c0.4,0.1,0.8,0.2,1.1,0.4c0.4,0.2,0.7,0.4,1.1,0.7
		c0.3,0.2,0.7,0.5,1,0.8c0.3,0.3,0.6,0.5,0.9,0.6c0.3,0.2,0.5,0.3,0.8,0.3c0.2,0,0.4-0.1,0.6-0.3c0.2-0.2,0.3-0.4,0.4-0.6
		c0.1-0.2,0.1-0.4,0-0.6c0-0.2-0.1-0.4-0.3-0.5c-0.1-0.2-0.3-0.3-0.5-0.5c-0.4-0.4-0.8-0.6-1.2-0.7c-0.4-0.1-0.8,0.1-1.2,0.4l-1.9-2
		c0.5-0.4,1-0.7,1.5-0.8c0.5-0.1,1-0.1,1.5,0s1,0.3,1.4,0.7c0.5,0.3,0.9,0.7,1.3,1.1c0.4,0.4,0.7,0.7,1,1.2c0.3,0.4,0.5,0.9,0.7,1.3
		c0.2,0.4,0.2,0.9,0.1,1.4c-0.1,0.5-0.3,0.9-0.7,1.3l-3.7,3.7c-0.3,0.3-0.6,0.6-0.9,1c-0.3,0.3-0.4,0.6-0.5,0.8l-2-2
		c0.1-0.1,0.2-0.3,0.2-0.4c0.1-0.1,0.2-0.3,0.3-0.4c-0.6,0-1.2-0.1-1.8-0.4C83.3,71.5,82.8,71.2,82.3,70.7z M84.3,70.2
		c0.4,0.4,0.7,0.6,1.1,0.7c0.3,0.1,0.6,0.1,0.9,0c0.3-0.1,0.5-0.2,0.7-0.4c0.2-0.2,0.4-0.3,0.5-0.4l0.7-0.7c-0.2,0-0.3-0.1-0.5-0.1
		c-0.2-0.1-0.3-0.2-0.5-0.3c-0.2-0.1-0.3-0.2-0.5-0.4c-0.2-0.1-0.4-0.3-0.5-0.4c-0.2-0.1-0.4-0.2-0.5-0.3c-0.2-0.1-0.4-0.2-0.5-0.2
		c-0.2,0-0.4,0-0.6,0c-0.2,0.1-0.4,0.2-0.6,0.4c-0.2,0.2-0.3,0.4-0.4,0.5c-0.1,0.2-0.1,0.4,0,0.5c0,0.2,0.1,0.4,0.2,0.5
		C84.1,69.8,84.2,70,84.3,70.2z"/>
</g>
</svg>
