<?xml version="1.0" encoding="utf-8"?>
<!-- Generator: Adobe Illustrator 19.0.0, SVG Export Plug-In . SVG Version: 6.00 Build 0)  -->
<svg version="1.1" id="Слой_1" xmlns="http://www.w3.org/2000/svg" xmlns:xlink="http://www.w3.org/1999/xlink" x="0px" y="0px"
	 viewBox="0 0 104 104" enable-background="new 0 0 104 104" xml:space="preserve">
<rect id="XMLID_106_" x="0.1" y="0.1" fill="#2D4C69" width="41.2" height="11.4"/>
<rect id="XMLID_105_" x="92.5" y="62.7" fill="#2D4C69" width="11.4" height="41.2"/>
<polygon id="XMLID_102_" fill="#35A8DF" points="103.9,62.7 41.3,0.1 0.1,0.1 103.9,103.9 "/>
<g id="XMLID_80_">
	<path id="XMLID_100_" fill="#FFFFFF" d="M28.1,16.5c-0.6-0.6-1-1.2-1.3-1.8c-0.3-0.6-0.5-1.2-0.5-1.9c0-0.6,0.1-1.2,0.3-1.8
		c0.2-0.6,0.5-1.2,1-1.8l1.8,1.9c-0.9,1.4-0.8,2.6,0.3,3.8c0.7,0.7,1.4,1,2.2,1c0.8,0,1.7-0.4,2.5-1l-3.2-3.3l1.5-1.5l3.2,3.2
		c0.2-0.3,0.4-0.7,0.6-1c0.1-0.4,0.2-0.7,0.2-1.1c0-0.4-0.1-0.7-0.2-1.1c-0.1-0.4-0.4-0.7-0.7-1.1c-0.5-0.5-1-0.8-1.6-0.9
		c-0.6-0.1-1.2,0-1.7,0.3l-1.8-1.9c0.5-0.4,1-0.6,1.6-0.8c0.6-0.1,1.2-0.2,1.8-0.1c0.6,0.1,1.2,0.2,1.8,0.5c0.6,0.3,1.1,0.7,1.6,1.2
		c0.7,0.7,1.1,1.4,1.4,2.2c0.3,0.8,0.4,1.6,0.4,2.3c-0.1,0.8-0.3,1.6-0.6,2.3c-0.4,0.8-0.9,1.4-1.5,2.1c-0.7,0.7-1.4,1.2-2.2,1.6
		c-0.8,0.4-1.5,0.6-2.3,0.6c-0.8,0-1.5-0.1-2.3-0.4C29.4,17.6,28.7,17.1,28.1,16.5z"/>
	<path id="XMLID_98_" fill="#FFFFFF" d="M40.1,15.4l1.7,1.8l-2.6,2.6l5-0.2l2,2.1l-5.5,0.1l-0.6,6.6l-2.1-2.1l0.4-4.9l-0.8,0
		l-2.3,2.2l-1.7-1.8L40.1,15.4z"/>
	<path id="XMLID_96_" fill="#FFFFFF" d="M43.5,32.1c-0.5-0.5-0.8-1-1.1-1.6c-0.2-0.6-0.3-1.1-0.3-1.7c0-0.6,0.1-1.1,0.4-1.7
		c0.2-0.6,0.6-1.1,1.1-1.5c0.5-0.5,1-0.9,1.6-1.1c0.6-0.3,1.2-0.4,1.7-0.4c0.6,0,1.2,0.1,1.7,0.3c0.6,0.2,1.1,0.6,1.6,1.1
		c0.4,0.4,0.7,0.8,0.9,1.3c0.2,0.5,0.4,0.9,0.5,1.4c0.1,0.5,0,1-0.1,1.4s-0.4,0.9-0.8,1.4l-1.7-1.7c0.6-0.8,0.6-1.6-0.2-2.4
		c-0.3-0.3-0.6-0.5-0.9-0.5c-0.3-0.1-0.6-0.1-1,0c-0.3,0.1-0.6,0.2-0.9,0.4c-0.3,0.2-0.6,0.4-0.8,0.6c-0.2,0.2-0.4,0.5-0.6,0.8
		c-0.2,0.3-0.3,0.6-0.4,0.9c-0.1,0.3-0.1,0.6,0,0.9c0.1,0.3,0.2,0.6,0.5,0.9c0.4,0.4,0.9,0.6,1.3,0.6c0.5,0,0.9-0.2,1.4-0.5l1.7,1.7
		c-1,0.7-1.9,1-2.9,0.9C45.2,33.4,44.3,32.9,43.5,32.1z"/>
	<path id="XMLID_94_" fill="#FFFFFF" d="M54.1,29.7l1.7,1.8L53.2,34l5-0.2l2,2.1L54.7,36l-0.6,6.6L52,40.4l0.4-4.9l-0.8,0l-2.3,2.2
		L47.6,36L54.1,29.7z"/>
	<path id="XMLID_92_" fill="#FFFFFF" d="M54.8,43.6c-0.1-0.1-0.2-0.2-0.3-0.4c-0.1-0.2-0.2-0.3-0.3-0.5l1.3-1.3
		c0,0.1,0.1,0.1,0.1,0.2c0.1,0.1,0.1,0.1,0.2,0.2c0.1,0.1,0.3,0.2,0.5,0.3c0.2,0,0.5-0.1,0.8-0.2c0.4-0.2,0.8-0.5,1.4-1
		c0.6-0.5,1.2-1.1,2.1-1.9l1.3-1.2l5.1,5.2l-6.4,6.3l-1.7-1.8l5.1-5l-1.8-1.8c-0.9,0.9-1.8,1.6-2.5,2.1c-0.7,0.6-1.4,1-2,1.2
		c-0.6,0.3-1.1,0.3-1.6,0.3C55.7,44.3,55.3,44,54.8,43.6z"/>
	<path id="XMLID_89_" fill="#FFFFFF" d="M67.8,56.9C66.9,56,66.5,55,66.5,54c0-1,0.4-2,1.2-3l-1.2-1.2l-2.7,2.7L62,50.7l6.4-6.3
		l1.7,1.8l-2.5,2.4l1.3,1.3c0.9-0.7,1.9-1,2.9-0.9c1,0.1,1.9,0.5,2.8,1.4c0.5,0.5,0.8,1,1,1.5c0.2,0.5,0.3,1.1,0.3,1.7
		c0,0.6-0.2,1.1-0.5,1.7c-0.3,0.6-0.7,1.1-1.2,1.6c-0.5,0.5-1.1,0.9-1.6,1.2c-0.6,0.3-1.1,0.4-1.7,0.4c-0.6,0-1.1-0.1-1.6-0.3
		C68.8,57.8,68.3,57.4,67.8,56.9z M69.2,55.6c0.4,0.4,0.9,0.6,1.5,0.5c0.6-0.1,1.2-0.5,1.9-1.2c0.6-0.6,1-1.2,1.2-1.8
		c0.1-0.6,0-1.1-0.5-1.6c-0.4-0.4-0.9-0.6-1.5-0.5c-0.6,0.1-1.2,0.5-1.9,1.1c-0.7,0.7-1.1,1.3-1.2,1.9
		C68.6,54.7,68.7,55.2,69.2,55.6z"/>
	<path id="XMLID_87_" fill="#FFFFFF" d="M74.6,63.8c-0.4-0.4-0.7-0.8-1-1.3c-0.3-0.4-0.5-0.9-0.5-1.3c-0.1-0.5-0.1-0.9,0.1-1.3
		c0.1-0.4,0.4-0.9,0.8-1.3l1.7,1.7c-0.3,0.4-0.5,0.8-0.4,1.2c0,0.4,0.3,0.8,0.7,1.2c0.4,0.4,0.8,0.6,1.1,0.6c0.3,0,0.6-0.1,0.9-0.3
		c0.3-0.3,0.4-0.6,0.4-0.9c0-0.3-0.2-0.7-0.6-1.1L77,60.3l1.1-1.1l0.5,0.5c0.4,0.4,0.7,0.6,1,0.7c0.3,0.1,0.7,0,1-0.3
		c0.2-0.2,0.3-0.4,0.3-0.7c0-0.3-0.2-0.6-0.5-1c-0.4-0.4-0.7-0.6-1-0.7c-0.3-0.1-0.7,0-1.1,0.3l-1.6-1.6c0.4-0.3,0.8-0.5,1.3-0.6
		c0.4-0.1,0.9-0.1,1.3,0c0.4,0.1,0.8,0.3,1.2,0.5s0.8,0.6,1.1,0.9c0.8,0.9,1.4,1.7,1.5,2.4c0.2,0.7,0,1.4-0.6,2
		c-0.2,0.2-0.4,0.3-0.6,0.4c-0.2,0.1-0.5,0.1-0.7,0.2c-0.2,0-0.5,0-0.7-0.1c-0.2-0.1-0.4-0.1-0.6-0.3l0,0c0.1,0.2,0.2,0.4,0.4,0.6
		c0.1,0.2,0.2,0.4,0.2,0.7c0,0.3,0,0.5-0.1,0.8c-0.1,0.3-0.3,0.5-0.6,0.8c-0.3,0.3-0.7,0.6-1.1,0.7c-0.4,0.1-0.8,0.1-1.2,0
		c-0.4-0.1-0.9-0.3-1.3-0.6C75.5,64.7,75.1,64.3,74.6,63.8z"/>
	<path id="XMLID_85_" fill="#FFFFFF" d="M85.3,61.5l1.7,1.7l-4.4,4.3l6.8-1.8l2,2L84.9,74l-1.7-1.7l4.4-4.3l-6.8,1.8l-2-2L85.3,61.5
		z"/>
	<path id="XMLID_81_" fill="#FFFFFF" d="M92.7,69l3.6,3.7c0.3,0.3,0.5,0.6,0.7,0.9c0.2,0.3,0.3,0.6,0.4,0.9c0.1,0.3,0,0.6-0.1,0.9
		c-0.1,0.3-0.3,0.6-0.6,0.9c-0.3,0.3-0.7,0.5-1,0.6c-0.4,0.1-0.8,0-1.1-0.1c0.2,0.4,0.3,0.9,0.3,1.3c0,0.5-0.3,0.9-0.7,1.4
		c-0.3,0.3-0.6,0.5-1,0.6c-0.3,0.1-0.7,0.2-1.1,0.1c-0.4,0-0.7-0.2-1.1-0.3c-0.3-0.2-0.7-0.4-1-0.7l-3.8-3.9L92.7,69z M92.9,74.5
		c0.1,0.1,0.3,0.3,0.4,0.4c0.1,0.1,0.3,0.2,0.4,0.2c0.2,0,0.3,0.1,0.5,0c0.2,0,0.3-0.1,0.5-0.3c0.2-0.2,0.3-0.3,0.3-0.5
		c0-0.2,0-0.3,0-0.4c0-0.1-0.1-0.3-0.2-0.4c-0.1-0.1-0.2-0.3-0.4-0.4l-1.1-1.2l-1.5,1.4L92.9,74.5z M90.4,77.3
		c0.1,0.1,0.3,0.3,0.5,0.4c0.2,0.1,0.3,0.2,0.5,0.3c0.2,0.1,0.3,0.1,0.5,0c0.2,0,0.4-0.2,0.5-0.3c0.2-0.2,0.3-0.4,0.3-0.5
		c0-0.2,0-0.4,0-0.5c-0.1-0.2-0.1-0.3-0.3-0.5c-0.1-0.2-0.3-0.3-0.4-0.5l-1.2-1.2L89.1,76L90.4,77.3z"/>
</g>
</svg>
